# xmcd
#
# Track frame offsets:
#	162
#	9577
#	19312
#	31085
#	41440
#	53657
#	66187
#	83525
#	97025
#	108822
#	120862
#	131582
#	146807
#	158507
#	171567
#	184385
#
# Disc length: 2593 seconds
#
# Revision: 0
# Processed by: cddbd v1.5.2PL0 Copyright (c) Steve Scherf et al.
# Submitted via: audiograbber 1.83.01
#
DISCID=ca0a1f10
DTITLE=Louvin Brothers - Running Wild
DYEAR=1900
DGENRE=Country (traditional)
TTITLE0=When I Stop Dreaming
TTITLE1=I Don't Believe You've Met My Baby
TTITLE2=Hoping That Your Hoping
TTITLE3=You're Running Wild
TTITLE4=Cash On The Barrel Head
TTITLE5=My Baby's Gone
TTITLE6=KnoXVIlle Girl
TTITLE7=I Love You Best Of All
TTITLE8=How's The World Treating You
TTITLE9=Must You Throw Dirt In My Face
TTITLE10=If I Could Only Win Your Love
TTITLE11=Blues Stay Away From Me
TTITLE12=Nashville Blues
TTITLE13=Brown's Ferry Blues
TTITLE14=Gonna Lay Down My Old Guitar
TTITLE15=My Baby Came Back
EXTD=
EXTT0=
EXTT1=
EXTT2=
EXTT3=
EXTT4=
EXTT5=
EXTT6=
EXTT7=
EXTT8=
EXTT9=
EXTT10=
EXTT11=
EXTT12=
EXTT13=
EXTT14=
EXTT15=
PLAYORDER=
